<?xml version="1.0" encoding="UTF-8"?>
<!DOCTYPE svg PUBLIC "-//W3C//DTD SVG 1.1//EN" "http://www.w3.org/Graphics/SVG/1.1/DTD/svg11.dtd">
<!-- Creator: CorelDRAW 2026 -->
<svg xmlns="http://www.w3.org/2000/svg" xml:space="preserve" width="294.809mm" height="193.632mm" version="1.1" style="shape-rendering:geometricPrecision; text-rendering:geometricPrecision; image-rendering:optimizeQuality; fill-rule:evenodd; clip-rule:evenodd"
viewBox="0 0 29480.94 19363.19"
 xmlns:xlink="http://www.w3.org/1999/xlink"
 xmlns:xodm="http://www.corel.com/coreldraw/odm/2003">
 <defs>
  <style type="text/css">
   <![CDATA[
    .fil3 {fill:none}
    .fil0 {fill:#1C3D5A}
    .fil2 {fill:#FEFEFE;fill-rule:nonzero}
    .fil1 {fill:#C4C4C4;fill-rule:nonzero}
   ]]>
  </style>
   <clipPath id="id0">
    <path d="M-0 0l29480.94 0 0 19363.19 -29480.94 0 0 -19363.19z"/>
   </clipPath>
 </defs>
 <g id="Camada_x0020_1">
  <metadata id="CorelCorpID_0Corel-Layer"/>
  <polygon class="fil0" points="-0,0 29480.94,0 29480.94,19363.19 -0,19363.19 "/>
  <g style="clip-path:url(#id0)">
   <g id="_1297510900416">
    <g>
     <g>
      <path id="_1" class="fil1" d="M-2688.56 3970.18l-473.82 -427.32 2381.32 -2640.43 473.81 427.32 -2381.31 2640.43zm3516.16 -4851.46l2334.88 -2588.93 4308.26 3885.48 -409.32 453.86c-170.46,-554.31 -775.87,-1341.86 -1214.81,-1737.73l-2300.28 -2074.54 -2244.91 2489.18 -473.82 -427.32z"/>
      <path class="fil2" d="M-120.41 6285.15l-1967.09 -1774.05 2380.74 -2639.79 470.83 424.62 -2290.78 2540.04 1510.23 1362.03c252.6,195.25 540.54,301.18 865.81,319.59 324.28,17.51 654.73,-48.05 992.35,-195.77 336.63,-148.62 641.68,-374.55 914.27,-676.79 278.88,-309.23 515.92,-634.26 587.22,-1006.12 327.78,-1709.83 -3520.01,-4423.37 -3584.44,-4336.67l528.25 -584.07c-48.21,53.45 2526.39,2780.79 3083.24,2931.2 287.08,77.55 511.51,149.28 832.91,39.18 322.52,-110.49 611.86,-307.39 866.45,-589.68 219.51,-243.4 373.34,-506.22 460.5,-789.39 87.15,-283.17 107.3,-556.22 59.64,-816.26 -47.65,-260.04 -166.24,-475.53 -354.77,-645.56l-1247.89 -1125.42 -1619.01 1795.18 -470.83 -424.62 1708.98 -1894.93 1782.55 1607.62c267.33,241.1 454.05,523.45 561.15,847.95 106.1,323.6 129.62,650.51 71.47,979.74 -58.15,329.22 -213.62,633.99 -466.41,914.29 -279.78,310.22 -618.85,502.29 -1017.4,576.54 -399.35,74.4 -829.75,73.64 -1215.58,-86.21 241.82,299.48 442.1,586.52 523.68,943.66 81.82,358.21 80.63,714.86 -2.8,1070.12 -84.34,356.25 -252.5,673.08 -506.2,954.38l-162.83 180.55c-281.58,312.22 -615.87,524.44 -1006.68,636.86 -389.8,113.32 -787.69,125.29 -1191.77,35.82 -405.07,-90.38 -770.6,-280.76 -1095.79,-574.04z"/>
     </g>
     <g>
      <path class="fil1" d="M-4052.94 15368.62l-473.82 -427.32 2381.32 -2640.43 473.82 427.32 -2381.32 2640.43zm3516.17 -4851.46l2334.87 -2588.93 4308.27 3885.48 -409.33 453.86c-170.45,-554.31 -775.86,-1341.86 -1214.81,-1737.73l-2300.27 -2074.54 -2244.91 2489.18 -473.82 -427.32z"/>
      <path class="fil2" d="M-1484.79 17683.59l-1967.08 -1774.05 2380.74 -2639.79 470.82 424.62 -2290.78 2540.04 1510.23 1362.03c252.61,195.25 540.54,301.18 865.82,319.59 324.27,17.51 654.72,-48.05 992.34,-195.77 336.63,-148.62 641.69,-374.55 914.27,-676.79 278.88,-309.23 515.93,-634.26 587.22,-1006.12 327.79,-1709.83 -3520,-4423.37 -3584.44,-4336.67l528.26 -584.07c-48.21,53.45 2526.38,2780.79 3083.23,2931.2 287.08,77.55 511.51,149.28 832.91,39.18 322.52,-110.49 611.86,-307.39 866.46,-589.68 219.5,-243.4 373.33,-506.22 460.49,-789.39 87.16,-283.17 107.31,-556.22 59.65,-816.26 -47.66,-260.04 -166.25,-475.53 -354.78,-645.56l-1247.88 -1125.42 -1619.02 1795.18 -470.82 -424.62 1708.97 -1894.93 1782.55 1607.62c267.33,241.1 454.05,523.45 561.15,847.95 106.1,323.6 129.62,650.51 71.48,979.74 -58.15,329.22 -213.62,633.99 -466.42,914.28 -279.78,310.23 -618.85,502.3 -1017.4,576.55 -399.35,74.4 -829.74,73.64 -1215.57,-86.21 241.81,299.48 442.09,586.52 523.67,943.66 81.83,358.21 80.64,714.86 -2.8,1070.12 -84.34,356.25 -252.5,673.08 -506.19,954.38l-162.83 180.55c-281.58,312.22 -615.88,524.44 -1006.68,636.86 -389.81,113.32 -787.7,125.29 -1191.77,35.82 -405.08,-90.38 -770.61,-280.76 -1095.8,-574.04z"/>
     </g>
     <g>
      <path class="fil1" d="M-5417.32 26767.06l-473.81 -427.32 2381.31 -2640.43 473.82 427.32 -2381.32 2640.43zm3516.17 -4851.46l2334.87 -2588.93 4308.27 3885.48 -409.33 453.86c-170.45,-554.31 -775.86,-1341.86 -1214.8,-1737.73l-2300.28 -2074.54 -2244.91 2489.18 -473.82 -427.32z"/>
      <path class="fil2" d="M-2849.16 29082.03l-1967.09 -1774.05 2380.74 -2639.79 470.82 424.62 -2290.77 2540.04 1510.23 1362.03c252.6,195.25 540.54,301.18 865.81,319.59 324.27,17.51 654.72,-48.05 992.35,-195.77 336.62,-148.62 641.68,-374.55 914.26,-676.8 278.89,-309.22 515.93,-634.25 587.22,-1006.11 327.79,-1709.83 -3520,-4423.37 -3584.43,-4336.67l528.25 -584.07c-48.21,53.45 2526.38,2780.79 3083.23,2931.2 287.09,77.55 511.51,149.28 832.92,39.18 322.51,-110.49 611.86,-307.39 866.45,-589.68 219.51,-243.4 373.34,-506.22 460.49,-789.39 87.16,-283.17 107.31,-556.22 59.65,-816.26 -47.66,-260.04 -166.25,-475.53 -354.78,-645.56l-1247.88 -1125.42 -1619.02 1795.18 -470.82 -424.62 1708.98 -1894.93 1782.55 1607.62c267.33,241.1 454.04,523.45 561.14,847.95 106.1,323.6 129.63,650.51 71.48,979.74 -58.15,329.22 -213.62,633.99 -466.41,914.28 -279.79,310.23 -618.85,502.3 -1017.4,576.55 -399.36,74.4 -829.75,73.64 -1215.58,-86.21 241.81,299.48 442.09,586.52 523.67,943.66 81.83,358.2 80.64,714.86 -2.8,1070.12 -84.33,356.25 -252.5,673.08 -506.19,954.38l-162.83 180.55c-281.58,312.22 -615.88,524.44 -1006.68,636.86 -389.81,113.32 -787.7,125.29 -1191.77,35.82 -405.07,-90.38 -770.6,-280.76 -1095.79,-574.04z"/>
     </g>
     <g>
      <path class="fil1" d="M6662.63 -3455.19l-473.82 -427.32 2381.32 -2640.44 473.81 427.32 -2381.31 2640.44zm3516.16 -4851.47l2334.88 -2588.93 4308.26 3885.48 -409.32 453.87c-170.46,-554.32 -775.87,-1341.87 -1214.81,-1737.73l-2300.28 -2074.55 -2244.91 2489.18 -473.82 -427.32z"/>
      <path class="fil2" d="M9230.78 -1140.22l-1967.09 -1774.05 2380.74 -2639.79 470.83 424.62 -2290.78 2540.04 1510.23 1362.02c252.6,195.26 540.54,301.19 865.81,319.59 324.28,17.51 654.73,-48.04 992.35,-195.77 336.63,-148.61 641.68,-374.55 914.27,-676.79 278.88,-309.23 515.92,-634.25 587.22,-1006.12 327.78,-1709.82 -3520.01,-4423.37 -3584.44,-4336.67l528.25 -584.07c-48.21,53.46 2526.39,2780.8 3083.24,2931.21 287.08,77.54 511.51,149.28 832.91,39.17 322.52,-110.48 611.86,-307.38 866.45,-589.68 219.51,-243.39 373.34,-506.22 460.5,-789.39 87.15,-283.17 107.3,-556.22 59.64,-816.26 -47.65,-260.04 -166.24,-475.52 -354.77,-645.55l-1247.89 -1125.43 -1619.01 1795.18 -470.83 -424.62 1708.98 -1894.93 1782.55 1607.62c267.33,241.1 454.05,523.45 561.15,847.95 106.09,323.61 129.62,650.52 71.47,979.74 -58.15,329.23 -213.62,633.99 -466.41,914.29 -279.78,310.22 -618.85,502.3 -1017.4,576.55 -399.35,74.39 -829.75,73.63 -1215.58,-86.22 241.82,299.48 442.1,586.52 523.68,943.66 81.82,358.21 80.63,714.86 -2.8,1070.12 -84.34,356.25 -252.5,673.09 -506.2,954.38l-162.83 180.55c-281.58,312.22 -615.87,524.44 -1006.68,636.87 -389.8,113.32 -787.69,125.29 -1191.77,35.81 -405.07,-90.38 -770.6,-280.76 -1095.79,-574.03z"/>
     </g>
     <g>
      <path class="fil1" d="M16013.81 -10880.57l-473.81 -427.32 2381.32 -2640.43 473.81 427.32 -2381.32 2640.43zm3516.17 -4851.46l2334.88 -2588.94 4308.26 3885.48 -409.32 453.87c-170.46,-554.31 -775.87,-1341.87 -1214.81,-1737.73l-2300.28 -2074.55 -2244.91 2489.19 -473.82 -427.32z"/>
      <path class="fil2" d="M18581.97 -8565.6l-1967.09 -1774.05 2380.74 -2639.79 470.83 424.62 -2290.78 2540.04 1510.23 1362.02c252.6,195.26 540.54,301.19 865.81,319.6 324.28,17.5 654.73,-48.05 992.35,-195.77 336.63,-148.62 641.68,-374.55 914.27,-676.8 278.88,-309.23 515.92,-634.25 587.21,-1006.12 327.79,-1709.82 -3520,-4423.37 -3584.43,-4336.67l528.25 -584.06c-48.21,53.45 2526.39,2780.79 3083.23,2931.2 287.09,77.55 511.52,149.28 832.92,39.18 322.52,-110.49 611.86,-307.39 866.45,-589.69 219.51,-243.39 373.34,-506.22 460.5,-789.38 87.15,-283.17 107.3,-556.22 59.64,-816.26 -47.65,-260.05 -166.25,-475.53 -354.77,-645.56l-1247.89 -1125.42 -1619.01 1795.18 -470.83 -424.62 1708.98 -1894.94 1782.55 1607.62c267.33,241.1 454.05,523.45 561.14,847.96 106.1,323.6 129.63,650.51 71.48,979.73 -58.15,329.23 -213.62,633.99 -466.41,914.29 -279.78,310.23 -618.85,502.3 -1017.4,576.55 -399.36,74.4 -829.75,73.63 -1215.58,-86.21 241.82,299.48 442.1,586.51 523.68,943.65 81.82,358.21 80.63,714.87 -2.8,1070.12 -84.34,356.26 -252.5,673.09 -506.2,954.39l-162.83 180.54c-281.58,312.23 -615.87,524.45 -1006.68,636.87 -389.8,113.32 -787.69,125.29 -1191.77,35.81 -405.07,-90.37 -770.6,-280.75 -1095.79,-574.03z"/>
     </g>
     <g>
      <path class="fil1" d="M25365 -18305.95l-473.81 -427.32 2381.31 -2640.43 473.82 427.32 -2381.32 2640.43zm3516.17 -4851.46l2334.88 -2588.93 4308.26 3885.48 -409.33 453.86c-170.45,-554.31 -775.86,-1341.86 -1214.8,-1737.73l-2300.28 -2074.54 -2244.91 2489.18 -473.82 -427.32z"/>
      <path class="fil2" d="M27933.16 -15990.98l-1967.09 -1774.05 2380.74 -2639.79 470.83 424.62 -2290.78 2540.04 1510.23 1362.03c252.6,195.25 540.54,301.18 865.81,319.59 324.28,17.51 654.73,-48.05 992.35,-195.77 336.63,-148.62 641.68,-374.55 914.27,-676.79 278.88,-309.23 515.92,-634.26 587.21,-1006.12 327.79,-1709.83 -3520,-4423.37 -3584.43,-4336.67l528.25 -584.07c-48.21,53.45 2526.39,2780.79 3083.23,2931.2 287.09,77.55 511.52,149.28 832.92,39.18 322.52,-110.49 611.86,-307.39 866.45,-589.68 219.51,-243.4 373.34,-506.22 460.49,-789.39 87.16,-283.17 107.31,-556.22 59.65,-816.26 -47.65,-260.04 -166.25,-475.53 -354.77,-645.56l-1247.89 -1125.42 -1619.01 1795.18 -470.83 -424.62 1708.98 -1894.93 1782.55 1607.62c267.33,241.1 454.05,523.45 561.14,847.95 106.1,323.6 129.63,650.51 71.48,979.74 -58.15,329.22 -213.62,633.99 -466.41,914.28 -279.78,310.23 -618.85,502.3 -1017.4,576.55 -399.36,74.4 -829.75,73.64 -1215.58,-86.21 241.82,299.48 442.1,586.52 523.68,943.66 81.82,358.2 80.63,714.86 -2.8,1070.12 -84.34,356.25 -252.5,673.08 -506.2,954.38l-162.83 180.55c-281.58,312.22 -615.87,524.44 -1006.68,636.86 -389.8,113.32 -787.69,125.29 -1191.77,35.82 -405.07,-90.38 -770.6,-280.76 -1095.79,-574.04z"/>
     </g>
     <g>
      <path class="fil1" d="M5298.25 7943.25l-473.82 -427.32 2381.32 -2640.44 473.82 427.32 -2381.32 2640.44zm3516.17 -4851.47l2334.87 -2588.93 4308.27 3885.48 -409.33 453.87c-170.46,-554.32 -775.86,-1341.87 -1214.81,-1737.74l-2300.27 -2074.54 -2244.92 2489.18 -473.81 -427.32z"/>
      <path class="fil2" d="M7866.4 10258.22l-1967.08 -1774.05 2380.74 -2639.79 470.82 424.62 -2290.78 2540.04 1510.23 1362.02c252.6,195.26 540.54,301.19 865.82,319.59 324.27,17.51 654.72,-48.05 992.34,-195.77 336.63,-148.61 641.68,-374.55 914.27,-676.79 278.88,-309.23 515.93,-634.25 587.22,-1006.12 327.79,-1709.82 -3520,-4423.37 -3584.44,-4336.67l528.26 -584.07c-48.21,53.46 2526.38,2780.8 3083.23,2931.21 287.08,77.54 511.51,149.28 832.91,39.17 322.52,-110.48 611.86,-307.38 866.46,-589.68 219.5,-243.39 373.33,-506.22 460.49,-789.39 87.15,-283.17 107.3,-556.22 59.65,-816.26 -47.66,-260.04 -166.25,-475.52 -354.78,-645.55l-1247.88 -1125.43 -1619.02 1795.18 -470.82 -424.62 1708.97 -1894.93 1782.55 1607.62c267.33,241.1 454.05,523.45 561.15,847.95 106.1,323.61 129.62,650.52 71.48,979.74 -58.15,329.23 -213.62,633.99 -466.42,914.29 -279.78,310.22 -618.85,502.3 -1017.4,576.55 -399.35,74.39 -829.74,73.63 -1215.57,-86.22 241.81,299.48 442.09,586.52 523.67,943.66 81.83,358.21 80.64,714.86 -2.8,1070.12 -84.34,356.25 -252.5,673.08 -506.19,954.38l-162.83 180.55c-281.58,312.22 -615.88,524.44 -1006.68,636.87 -389.81,113.32 -787.7,125.29 -1191.77,35.81 -405.08,-90.38 -770.61,-280.76 -1095.8,-574.03z"/>
     </g>
     <g>
      <path class="fil1" d="M14649.44 517.87l-473.82 -427.32 2381.32 -2640.43 473.82 427.32 -2381.32 2640.43zm3516.17 -4851.46l2334.87 -2588.94 4308.27 3885.48 -409.33 453.87c-170.46,-554.31 -775.86,-1341.87 -1214.81,-1737.73l-2300.27 -2074.55 -2244.92 2489.19 -473.81 -427.32z"/>
      <path class="fil2" d="M17217.59 2832.84l-1967.08 -1774.05 2380.74 -2639.79 470.82 424.62 -2290.78 2540.04 1510.23 1362.02c252.6,195.26 540.54,301.19 865.82,319.6 324.27,17.5 654.72,-48.05 992.34,-195.77 336.63,-148.62 641.68,-374.55 914.27,-676.8 278.88,-309.23 515.93,-634.25 587.22,-1006.12 327.79,-1709.82 -3520,-4423.37 -3584.44,-4336.67l528.26 -584.07c-48.21,53.46 2526.38,2780.8 3083.23,2931.21 287.08,77.55 511.51,149.28 832.91,39.18 322.52,-110.49 611.86,-307.39 866.46,-589.69 219.5,-243.39 373.33,-506.22 460.49,-789.39 87.15,-283.16 107.3,-556.21 59.65,-816.25 -47.66,-260.05 -166.25,-475.53 -354.78,-645.56l-1247.88 -1125.42 -1619.02 1795.18 -470.82 -424.62 1708.97 -1894.94 1782.55 1607.62c267.33,241.1 454.05,523.45 561.15,847.96 106.1,323.6 129.62,650.51 71.48,979.73 -58.15,329.23 -213.62,633.99 -466.42,914.29 -279.78,310.23 -618.85,502.3 -1017.4,576.55 -399.35,74.4 -829.74,73.63 -1215.57,-86.21 241.81,299.48 442.09,586.51 523.67,943.65 81.83,358.21 80.64,714.87 -2.8,1070.12 -84.34,356.26 -252.5,673.09 -506.19,954.39l-162.83 180.54c-281.58,312.23 -615.88,524.45 -1006.68,636.87 -389.81,113.32 -787.7,125.29 -1191.77,35.81 -405.08,-90.37 -770.61,-280.75 -1095.8,-574.03z"/>
     </g>
     <g>
      <path class="fil1" d="M24000.63 -6907.51l-473.82 -427.32 2381.32 -2640.43 473.82 427.32 -2381.32 2640.43zm3516.17 -4851.46l2334.87 -2588.93 4308.27 3885.48 -409.33 453.86c-170.46,-554.31 -775.86,-1341.86 -1214.81,-1737.73l-2300.27 -2074.54 -2244.92 2489.18 -473.81 -427.32z"/>
      <path class="fil2" d="M26568.78 -4592.54l-1967.08 -1774.05 2380.73 -2639.79 470.83 424.62 -2290.78 2540.04 1510.23 1362.03c252.6,195.25 540.54,301.18 865.82,319.59 324.27,17.51 654.72,-48.05 992.34,-195.77 336.63,-148.62 641.68,-374.55 914.27,-676.8 278.88,-309.22 515.93,-634.25 587.22,-1006.11 327.79,-1709.83 -3520,-4423.37 -3584.44,-4336.67l528.25 -584.07c-48.2,53.45 2526.39,2780.79 3083.24,2931.2 287.08,77.55 511.51,149.28 832.91,39.18 322.52,-110.49 611.86,-307.39 866.46,-589.68 219.5,-243.4 373.33,-506.23 460.49,-789.39 87.15,-283.17 107.3,-556.22 59.65,-816.26 -47.66,-260.04 -166.25,-475.53 -354.78,-645.56l-1247.88 -1125.42 -1619.02 1795.18 -470.82 -424.62 1708.97 -1894.93 1782.55 1607.62c267.33,241.1 454.05,523.45 561.15,847.95 106.1,323.6 129.62,650.51 71.48,979.74 -58.15,329.22 -213.62,633.99 -466.42,914.28 -279.78,310.23 -618.85,502.3 -1017.4,576.55 -399.35,74.4 -829.74,73.64 -1215.57,-86.21 241.81,299.48 442.09,586.52 523.67,943.65 81.83,358.21 80.64,714.87 -2.8,1070.13 -84.34,356.25 -252.5,673.08 -506.19,954.38l-162.83 180.55c-281.59,312.22 -615.88,524.44 -1006.68,636.86 -389.81,113.32 -787.7,125.29 -1191.77,35.82 -405.08,-90.38 -770.61,-280.76 -1095.8,-574.04z"/>
     </g>
     <g>
      <path class="fil1" d="M3933.87 19341.69l-473.81 -427.32 2381.31 -2640.44 473.82 427.32 -2381.32 2640.44zm3516.17 -4851.47l2334.87 -2588.93 4308.27 3885.48 -409.33 453.87c-170.45,-554.32 -775.86,-1341.87 -1214.8,-1737.74l-2300.28 -2074.54 -2244.91 2489.18 -473.82 -427.32z"/>
      <path class="fil2" d="M6502.03 21656.66l-1967.09 -1774.05 2380.74 -2639.79 470.82 424.62 -2290.77 2540.04 1510.23 1362.02c252.6,195.26 540.54,301.19 865.81,319.59 324.27,17.51 654.72,-48.05 992.35,-195.77 336.62,-148.62 641.68,-374.55 914.26,-676.79 278.89,-309.23 515.93,-634.25 587.22,-1006.12 327.79,-1709.82 -3520,-4423.37 -3584.43,-4336.67l528.25 -584.07c-48.21,53.46 2526.38,2780.8 3083.23,2931.21 287.09,77.54 511.51,149.28 832.92,39.17 322.51,-110.48 611.86,-307.38 866.45,-589.68 219.51,-243.39 373.34,-506.22 460.49,-789.39 87.16,-283.17 107.31,-556.22 59.65,-816.26 -47.66,-260.04 -166.25,-475.53 -354.78,-645.55l-1247.88 -1125.43 -1619.02 1795.18 -470.82 -424.62 1708.98 -1894.93 1782.55 1607.62c267.33,241.1 454.04,523.45 561.14,847.95 106.1,323.61 129.63,650.52 71.48,979.74 -58.15,329.23 -213.62,633.99 -466.41,914.29 -279.79,310.22 -618.86,502.3 -1017.4,576.55 -399.36,74.39 -829.75,73.63 -1215.58,-86.22 241.81,299.48 442.09,586.52 523.67,943.66 81.83,358.21 80.64,714.86 -2.8,1070.12 -84.33,356.25 -252.5,673.08 -506.19,954.38l-162.83 180.55c-281.58,312.22 -615.88,524.44 -1006.68,636.87 -389.81,113.32 -787.7,125.29 -1191.77,35.81 -405.07,-90.38 -770.6,-280.76 -1095.79,-574.03z"/>
     </g>
     <g>
      <path class="fil1" d="M13285.06 11916.31l-473.82 -427.32 2381.32 -2640.43 473.82 427.32 -2381.32 2640.43zm3516.17 -4851.46l2334.87 -2588.94 4308.27 3885.48 -409.33 453.87c-170.45,-554.31 -775.86,-1341.87 -1214.8,-1737.73l-2300.28 -2074.55 -2244.91 2489.19 -473.82 -427.32z"/>
      <path class="fil2" d="M15853.22 14231.28l-1967.09 -1774.05 2380.74 -2639.79 470.82 424.62 -2290.77 2540.04 1510.22 1362.02c252.61,195.26 540.55,301.19 865.82,319.6 324.27,17.5 654.72,-48.05 992.35,-195.77 336.62,-148.62 641.68,-374.55 914.26,-676.8 278.89,-309.23 515.93,-634.25 587.22,-1006.12 327.79,-1709.82 -3520,-4423.37 -3584.43,-4336.67l528.25 -584.07c-48.21,53.46 2526.38,2780.8 3083.23,2931.21 287.09,77.55 511.51,149.28 832.92,39.18 322.51,-110.49 611.86,-307.39 866.45,-589.69 219.51,-243.39 373.34,-506.22 460.49,-789.39 87.16,-283.16 107.31,-556.21 59.65,-816.25 -47.66,-260.05 -166.25,-475.53 -354.78,-645.56l-1247.88 -1125.42 -1619.02 1795.18 -470.82 -424.62 1708.98 -1894.94 1782.55 1607.62c267.33,241.1 454.04,523.45 561.14,847.96 106.1,323.6 129.63,650.51 71.48,979.73 -58.15,329.23 -213.62,633.99 -466.41,914.29 -279.79,310.23 -618.86,502.3 -1017.41,576.55 -399.35,74.4 -829.74,73.63 -1215.57,-86.21 241.81,299.48 442.09,586.51 523.67,943.65 81.83,358.21 80.64,714.87 -2.8,1070.12 -84.33,356.26 -252.5,673.09 -506.19,954.39l-162.83 180.54c-281.58,312.23 -615.88,524.45 -1006.68,636.87 -389.81,113.32 -787.7,125.29 -1191.77,35.81 -405.07,-90.37 -770.6,-280.75 -1095.79,-574.03z"/>
     </g>
     <g>
      <path class="fil1" d="M22636.25 4490.93l-473.82 -427.32 2381.32 -2640.43 473.82 427.32 -2381.32 2640.43zm3516.17 -4851.46l2334.87 -2588.93 4308.27 3885.48 -409.33 453.86c-170.45,-554.31 -775.86,-1341.86 -1214.8,-1737.73l-2300.28 -2074.54 -2244.91 2489.18 -473.82 -427.32z"/>
      <path class="fil2" d="M25204.41 6805.9l-1967.09 -1774.05 2380.74 -2639.79 470.82 424.62 -2290.77 2540.04 1510.22 1362.03c252.61,195.25 540.55,301.18 865.82,319.59 324.27,17.51 654.72,-48.05 992.35,-195.77 336.62,-148.62 641.68,-374.55 914.26,-676.8 278.89,-309.22 515.93,-634.25 587.22,-1006.11 327.79,-1709.83 -3520,-4423.37 -3584.43,-4336.67l528.25 -584.07c-48.21,53.45 2526.38,2780.79 3083.23,2931.2 287.09,77.55 511.51,149.28 832.92,39.18 322.51,-110.49 611.86,-307.39 866.45,-589.68 219.51,-243.4 373.34,-506.23 460.49,-789.39 87.16,-283.17 107.31,-556.22 59.65,-816.26 -47.66,-260.04 -166.25,-475.53 -354.78,-645.56l-1247.88 -1125.42 -1619.02 1795.18 -470.82 -424.62 1708.98 -1894.93 1782.55 1607.62c267.33,241.1 454.04,523.45 561.14,847.95 106.1,323.6 129.63,650.51 71.48,979.74 -58.15,329.22 -213.62,633.98 -466.41,914.28 -279.79,310.23 -618.86,502.3 -1017.41,576.55 -399.35,74.4 -829.74,73.64 -1215.57,-86.21 241.81,299.48 442.09,586.52 523.67,943.65 81.83,358.21 80.64,714.87 -2.8,1070.13 -84.33,356.25 -252.5,673.08 -506.19,954.38l-162.83 180.55c-281.58,312.22 -615.88,524.44 -1006.68,636.86 -389.81,113.32 -787.7,125.29 -1191.77,35.82 -405.07,-90.38 -770.6,-280.76 -1095.79,-574.04z"/>
     </g>
     <g>
      <path class="fil1" d="M10646.51 24095.85l-473.82 -427.32 2381.32 -2640.43 473.82 427.32 -2381.32 2640.43zm3516.17 -4851.46l2334.87 -2588.93 4308.27 3885.48 -409.33 453.86c-170.45,-554.31 -775.86,-1341.86 -1214.81,-1737.73l-2300.27 -2074.54 -2244.91 2489.18 -473.82 -427.32z"/>
      <path class="fil2" d="M13214.67 26410.83l-1967.09 -1774.06 2380.74 -2639.79 470.82 424.62 -2290.78 2540.04 1510.23 1362.03c252.61,195.25 540.54,301.18 865.82,319.59 324.27,17.51 654.72,-48.05 992.34,-195.77 336.63,-148.62 641.69,-374.55 914.27,-676.79 278.88,-309.23 515.93,-634.26 587.22,-1006.12 327.79,-1709.82 -3520,-4423.37 -3584.44,-4336.67l528.26 -584.07c-48.21,53.45 2526.38,2780.79 3083.23,2931.21 287.08,77.54 511.51,149.27 832.91,39.17 322.52,-110.49 611.86,-307.39 866.46,-589.68 219.5,-243.39 373.33,-506.22 460.49,-789.39 87.16,-283.17 107.31,-556.22 59.65,-816.26 -47.66,-260.04 -166.25,-475.53 -354.78,-645.56l-1247.88 -1125.42 -1619.02 1795.18 -470.82 -424.62 1708.97 -1894.93 1782.55 1607.62c267.34,241.1 454.05,523.45 561.15,847.95 106.1,323.6 129.62,650.52 71.48,979.74 -58.15,329.22 -213.62,633.99 -466.42,914.29 -279.78,310.22 -618.85,502.3 -1017.4,576.54 -399.35,74.4 -829.74,73.64 -1215.57,-86.21 241.81,299.48 442.09,586.52 523.67,943.66 81.83,358.21 80.64,714.86 -2.8,1070.12 -84.34,356.25 -252.5,673.08 -506.19,954.38l-162.83 180.55c-281.58,312.22 -615.88,524.44 -1006.68,636.86 -389.81,113.32 -787.7,125.29 -1191.77,35.82 -405.08,-90.38 -770.61,-280.76 -1095.79,-574.03z"/>
     </g>
     <g>
      <path class="fil1" d="M9282.13 35494.29l-473.81 -427.32 2381.31 -2640.43 473.82 427.32 -2381.32 2640.43zm3516.17 -4851.46l2334.87 -2588.93 4308.27 3885.48 -409.33 453.86c-170.45,-554.31 -775.86,-1341.86 -1214.8,-1737.73l-2300.28 -2074.54 -2244.91 2489.18 -473.82 -427.32z"/>
      <path class="fil2" d="M11850.29 37809.27l-1967.09 -1774.06 2380.74 -2639.79 470.82 424.62 -2290.77 2540.04 1510.23 1362.03c252.6,195.25 540.54,301.18 865.81,319.59 324.27,17.51 654.72,-48.05 992.35,-195.77 336.62,-148.62 641.68,-374.55 914.26,-676.79 278.89,-309.23 515.93,-634.26 587.22,-1006.12 327.79,-1709.82 -3520,-4423.37 -3584.43,-4336.67l528.25 -584.07c-48.21,53.45 2526.38,2780.79 3083.23,2931.21 287.09,77.54 511.52,149.27 832.92,39.17 322.51,-110.49 611.86,-307.39 866.45,-589.68 219.51,-243.39 373.34,-506.22 460.49,-789.39 87.16,-283.17 107.31,-556.22 59.65,-816.26 -47.66,-260.04 -166.25,-475.53 -354.78,-645.56l-1247.88 -1125.42 -1619.02 1795.18 -470.82 -424.62 1708.98 -1894.93 1782.55 1607.62c267.33,241.1 454.04,523.45 561.14,847.95 106.1,323.6 129.63,650.52 71.48,979.74 -58.15,329.22 -213.62,633.99 -466.41,914.29 -279.79,310.22 -618.85,502.3 -1017.4,576.54 -399.36,74.4 -829.75,73.64 -1215.58,-86.21 241.81,299.48 442.09,586.52 523.67,943.66 81.83,358.21 80.64,714.86 -2.8,1070.12 -84.33,356.25 -252.49,673.08 -506.19,954.38l-162.83 180.55c-281.58,312.22 -615.88,524.44 -1006.68,636.86 -389.81,113.32 -787.7,125.29 -1191.77,35.82 -405.07,-90.38 -770.6,-280.76 -1095.79,-574.03z"/>
     </g>
     <g>
      <path class="fil1" d="M7917.76 46892.73l-473.82 -427.32 2381.32 -2640.43 473.81 427.32 -2381.31 2640.43zm3516.17 -4851.46l2334.87 -2588.93 4308.26 3885.48 -409.32 453.86c-170.46,-554.31 -775.87,-1341.86 -1214.81,-1737.73l-2300.28 -2074.54 -2244.91 2489.18 -473.81 -427.32z"/>
      <path class="fil2" d="M10485.91 49207.71l-1967.09 -1774.06 2380.74 -2639.79 470.83 424.62 -2290.78 2540.04 1510.23 1362.03c252.6,195.25 540.54,301.18 865.81,319.59 324.28,17.51 654.73,-48.05 992.35,-195.77 336.63,-148.62 641.68,-374.55 914.27,-676.79 278.88,-309.23 515.93,-634.26 587.22,-1006.12 327.78,-1709.82 -3520,-4423.37 -3584.44,-4336.67l528.25 -584.07c-48.21,53.45 2526.39,2780.79 3083.24,2931.2 287.08,77.55 511.51,149.28 832.91,39.18 322.52,-110.49 611.86,-307.39 866.45,-589.68 219.51,-243.39 373.34,-506.22 460.5,-789.39 87.15,-283.17 107.3,-556.22 59.65,-816.26 -47.66,-260.04 -166.25,-475.53 -354.78,-645.56l-1247.89 -1125.42 -1619.01 1795.18 -470.83 -424.62 1708.98 -1894.93 1782.55 1607.62c267.33,241.1 454.05,523.45 561.15,847.95 106.1,323.6 129.62,650.52 71.47,979.74 -58.15,329.22 -213.62,633.99 -466.41,914.29 -279.78,310.22 -618.85,502.3 -1017.4,576.54 -399.35,74.4 -829.74,73.64 -1215.57,-86.21 241.81,299.48 442.09,586.52 523.67,943.66 81.82,358.21 80.63,714.86 -2.8,1070.12 -84.34,356.25 -252.5,673.08 -506.19,954.38l-162.84 180.55c-281.58,312.22 -615.87,524.44 -1006.68,636.86 -389.8,113.32 -787.69,125.29 -1191.77,35.82 -405.07,-90.38 -770.6,-280.76 -1095.79,-574.03z"/>
     </g>
     <g>
      <path class="fil1" d="M19997.7 16670.48l-473.82 -427.32 2381.32 -2640.43 473.82 427.31 -2381.32 2640.44zm3516.17 -4851.47l2334.87 -2588.93 4308.27 3885.48 -409.33 453.87c-170.46,-554.32 -775.86,-1341.87 -1214.81,-1737.73l-2300.27 -2074.55 -2244.92 2489.18 -473.81 -427.32z"/>
      <path class="fil2" d="M22565.85 18985.45l-1967.08 -1774.05 2380.74 -2639.79 470.82 424.62 -2290.78 2540.04 1510.23 1362.02c252.6,195.26 540.54,301.19 865.82,319.6 324.27,17.5 654.72,-48.05 992.34,-195.77 336.63,-148.62 641.68,-374.56 914.27,-676.8 278.88,-309.23 515.93,-634.25 587.22,-1006.12 327.79,-1709.82 -3520,-4423.37 -3584.44,-4336.67l528.26 -584.07c-48.21,53.46 2526.38,2780.8 3083.23,2931.21 287.08,77.54 511.51,149.28 832.91,39.17 322.52,-110.48 611.86,-307.38 866.46,-589.68 219.5,-243.39 373.33,-506.22 460.49,-789.39 87.15,-283.16 107.3,-556.22 59.65,-816.26 -47.66,-260.04 -166.25,-475.52 -354.78,-645.55l-1247.88 -1125.43 -1619.02 1795.19 -470.82 -424.63 1708.97 -1894.93 1782.55 1607.62c267.33,241.1 454.05,523.45 561.15,847.95 106.1,323.61 129.62,650.52 71.48,979.74 -58.15,329.23 -213.62,633.99 -466.42,914.29 -279.78,310.23 -618.85,502.3 -1017.4,576.55 -399.35,74.39 -829.74,73.63 -1215.57,-86.22 241.81,299.48 442.09,586.52 523.67,943.66 81.83,358.21 80.64,714.86 -2.8,1070.12 -84.34,356.26 -252.5,673.09 -506.19,954.38l-162.83 180.55c-281.58,312.22 -615.88,524.45 -1006.68,636.87 -389.81,113.32 -787.7,125.29 -1191.77,35.81 -405.08,-90.38 -770.61,-280.76 -1095.8,-574.03z"/>
     </g>
     <g>
      <path class="fil1" d="M29348.89 9245.1l-473.82 -427.32 2381.32 -2640.43 473.82 427.32 -2381.32 2640.43zm3516.17 -4851.46l2334.87 -2588.94 4308.27 3885.48 -409.33 453.87c-170.46,-554.31 -775.86,-1341.86 -1214.81,-1737.73l-2300.27 -2074.55 -2244.92 2489.19 -473.81 -427.32z"/>
      <path class="fil2" d="M31917.04 11560.07l-1967.08 -1774.05 2380.74 -2639.79 470.82 424.62 -2290.78 2540.04 1510.23 1362.03c252.6,195.25 540.54,301.18 865.82,319.59 324.27,17.51 654.72,-48.05 992.34,-195.77 336.63,-148.62 641.68,-374.55 914.27,-676.8 278.88,-309.23 515.93,-634.25 587.22,-1006.12 327.79,-1709.82 -3520,-4423.37 -3584.44,-4336.67l528.26 -584.06c-48.21,53.45 2526.38,2780.79 3083.23,2931.2 287.08,77.55 511.51,149.28 832.91,39.18 322.52,-110.49 611.86,-307.39 866.46,-589.69 219.5,-243.39 373.33,-506.22 460.49,-789.38 87.15,-283.17 107.3,-556.22 59.65,-816.26 -47.66,-260.05 -166.25,-475.53 -354.78,-645.56l-1247.88 -1125.42 -1619.02 1795.18 -470.82 -424.62 1708.97 -1894.94 1782.55 1607.63c267.33,241.09 454.05,523.44 561.15,847.95 106.1,323.6 129.62,650.51 71.48,979.74 -58.15,329.22 -213.62,633.98 -466.42,914.28 -279.78,310.23 -618.85,502.3 -1017.4,576.55 -399.35,74.4 -829.74,73.64 -1215.57,-86.21 241.81,299.48 442.09,586.51 523.67,943.65 81.83,358.21 80.64,714.87 -2.8,1070.12 -84.34,356.26 -252.5,673.09 -506.19,954.39l-162.83 180.55c-281.58,312.22 -615.88,524.44 -1006.68,636.86 -389.81,113.32 -787.7,125.29 -1191.77,35.81 -405.08,-90.37 -770.61,-280.75 -1095.8,-574.03z"/>
     </g>
     <g>
      <path class="fil1" d="M38700.08 1819.72l-473.82 -427.32 2381.32 -2640.43 473.82 427.32 -2381.32 2640.43zm3516.17 -4851.46l2334.87 -2588.93 4308.27 3885.48 -409.33 453.86c-170.46,-554.31 -775.86,-1341.86 -1214.81,-1737.73l-2300.27 -2074.54 -2244.92 2489.18 -473.81 -427.32z"/>
      <path class="fil2" d="M41268.23 4134.7l-1967.08 -1774.06 2380.73 -2639.79 470.83 424.62 -2290.78 2540.04 1510.23 1362.03c252.6,195.25 540.54,301.18 865.82,319.59 324.27,17.51 654.72,-48.05 992.34,-195.77 336.63,-148.62 641.68,-374.55 914.27,-676.79 278.88,-309.23 515.93,-634.26 587.22,-1006.12 327.79,-1709.82 -3520,-4423.37 -3584.44,-4336.67l528.26 -584.07c-48.21,53.45 2526.38,2780.79 3083.23,2931.21 287.08,77.54 511.51,149.27 832.91,39.17 322.52,-110.49 611.86,-307.39 866.46,-589.68 219.5,-243.39 373.33,-506.22 460.49,-789.39 87.15,-283.17 107.3,-556.22 59.65,-816.26 -47.66,-260.04 -166.25,-475.53 -354.78,-645.56l-1247.88 -1125.42 -1619.02 1795.18 -470.82 -424.62 1708.97 -1894.93 1782.55 1607.62c267.33,241.1 454.05,523.45 561.15,847.95 106.1,323.6 129.62,650.52 71.48,979.74 -58.15,329.22 -213.62,633.99 -466.42,914.29 -279.78,310.22 -618.85,502.3 -1017.4,576.54 -399.35,74.4 -829.74,73.64 -1215.57,-86.21 241.81,299.48 442.09,586.52 523.67,943.66 81.83,358.21 80.64,714.86 -2.8,1070.12 -84.34,356.25 -252.5,673.08 -506.19,954.38l-162.83 180.55c-281.58,312.22 -615.88,524.44 -1006.68,636.86 -389.81,113.32 -787.7,125.29 -1191.77,35.82 -405.08,-90.38 -770.61,-280.76 -1095.8,-574.03z"/>
     </g>
     <g>
      <path class="fil1" d="M18633.32 28068.92l-473.81 -427.32 2381.31 -2640.43 473.82 427.31 -2381.32 2640.44zm3516.17 -4851.47l2334.87 -2588.93 4308.27 3885.48 -409.33 453.87c-170.45,-554.32 -775.86,-1341.87 -1214.8,-1737.73l-2300.28 -2074.55 -2244.91 2489.18 -473.82 -427.32z"/>
      <path class="fil2" d="M21201.48 30383.89l-1967.09 -1774.05 2380.74 -2639.79 470.82 424.62 -2290.77 2540.04 1510.23 1362.02c252.6,195.26 540.54,301.19 865.81,319.59 324.27,17.51 654.72,-48.04 992.35,-195.76 336.62,-148.62 641.68,-374.56 914.26,-676.8 278.89,-309.23 515.93,-634.25 587.22,-1006.12 327.79,-1709.82 -3520,-4423.37 -3584.43,-4336.67l528.25 -584.07c-48.21,53.46 2526.38,2780.8 3083.23,2931.21 287.09,77.54 511.51,149.28 832.92,39.17 322.51,-110.48 611.86,-307.38 866.45,-589.68 219.51,-243.39 373.34,-506.22 460.49,-789.39 87.16,-283.16 107.31,-556.22 59.65,-816.26 -47.66,-260.04 -166.25,-475.52 -354.78,-645.55l-1247.88 -1125.43 -1619.02 1795.19 -470.82 -424.63 1708.98 -1894.93 1782.55 1607.62c267.33,241.1 454.04,523.45 561.14,847.95 106.1,323.61 129.63,650.52 71.48,979.74 -58.15,329.23 -213.62,633.99 -466.41,914.29 -279.79,310.22 -618.86,502.3 -1017.4,576.55 -399.36,74.39 -829.75,73.63 -1215.58,-86.22 241.81,299.48 442.09,586.52 523.67,943.66 81.83,358.21 80.64,714.86 -2.8,1070.12 -84.33,356.26 -252.5,673.09 -506.19,954.38l-162.83 180.55c-281.58,312.22 -615.88,524.45 -1006.68,636.87 -389.81,113.32 -787.7,125.29 -1191.77,35.81 -405.07,-90.38 -770.6,-280.76 -1095.79,-574.03z"/>
     </g>
     <g>
      <path class="fil1" d="M27984.51 20643.54l-473.82 -427.32 2381.32 -2640.43 473.82 427.32 -2381.32 2640.43zm3516.17 -4851.46l2334.87 -2588.94 4308.27 3885.48 -409.33 453.87c-170.45,-554.31 -775.86,-1341.86 -1214.8,-1737.73l-2300.28 -2074.55 -2244.91 2489.19 -473.82 -427.32z"/>
      <path class="fil2" d="M30552.67 22958.51l-1967.09 -1774.05 2380.74 -2639.79 470.82 424.62 -2290.77 2540.04 1510.22 1362.03c252.61,195.25 540.55,301.18 865.82,319.59 324.27,17.51 654.72,-48.05 992.35,-195.77 336.62,-148.62 641.68,-374.55 914.26,-676.8 278.89,-309.23 515.93,-634.25 587.22,-1006.12 327.79,-1709.82 -3520,-4423.37 -3584.43,-4336.67l528.25 -584.06c-48.21,53.45 2526.38,2780.79 3083.23,2931.2 287.09,77.55 511.51,149.28 832.92,39.18 322.51,-110.49 611.86,-307.39 866.45,-589.69 219.51,-243.39 373.34,-506.22 460.49,-789.38 87.16,-283.17 107.31,-556.22 59.65,-816.26 -47.66,-260.05 -166.25,-475.53 -354.78,-645.56l-1247.88 -1125.42 -1619.02 1795.18 -470.82 -424.62 1708.98 -1894.94 1782.55 1607.63c267.33,241.09 454.04,523.44 561.14,847.95 106.1,323.6 129.63,650.51 71.48,979.74 -58.15,329.22 -213.62,633.98 -466.41,914.28 -279.79,310.23 -618.86,502.3 -1017.41,576.55 -399.35,74.4 -829.74,73.63 -1215.57,-86.21 241.81,299.48 442.09,586.51 523.67,943.65 81.83,358.21 80.64,714.87 -2.8,1070.12 -84.33,356.26 -252.5,673.09 -506.19,954.39l-162.83 180.55c-281.58,312.22 -615.88,524.44 -1006.68,636.86 -389.81,113.32 -787.7,125.29 -1191.77,35.81 -405.07,-90.37 -770.6,-280.75 -1095.79,-574.03z"/>
     </g>
     <g>
      <path class="fil1" d="M37335.7 13218.16l-473.82 -427.32 2381.32 -2640.43 473.82 427.32 -2381.32 2640.43zm3516.17 -4851.46l2334.87 -2588.93 4308.27 3885.48 -409.33 453.86c-170.45,-554.31 -775.86,-1341.86 -1214.8,-1737.73l-2300.28 -2074.54 -2244.91 2489.18 -473.82 -427.32z"/>
      <path class="fil2" d="M39903.86 15533.14l-1967.09 -1774.06 2380.74 -2639.79 470.82 424.62 -2290.77 2540.04 1510.22 1362.03c252.61,195.25 540.55,301.18 865.82,319.59 324.27,17.51 654.72,-48.05 992.35,-195.77 336.62,-148.62 641.68,-374.55 914.26,-676.79 278.89,-309.23 515.93,-634.26 587.22,-1006.12 327.79,-1709.82 -3520,-4423.37 -3584.43,-4336.67l528.25 -584.07c-48.21,53.45 2526.38,2780.79 3083.23,2931.2 287.09,77.55 511.51,149.28 832.92,39.18 322.51,-110.49 611.86,-307.39 866.45,-589.68 219.51,-243.39 373.34,-506.22 460.49,-789.39 87.16,-283.17 107.31,-556.22 59.65,-816.26 -47.66,-260.04 -166.25,-475.53 -354.78,-645.56l-1247.88 -1125.42 -1619.02 1795.18 -470.82 -424.62 1708.98 -1894.93 1782.55 1607.62c267.33,241.1 454.04,523.45 561.14,847.95 106.1,323.6 129.63,650.52 71.48,979.74 -58.15,329.22 -213.62,633.99 -466.41,914.29 -279.79,310.22 -618.86,502.3 -1017.41,576.54 -399.35,74.4 -829.74,73.64 -1215.57,-86.21 241.81,299.48 442.09,586.52 523.67,943.66 81.83,358.21 80.64,714.86 -2.8,1070.12 -84.33,356.25 -252.5,673.08 -506.19,954.38l-162.83 180.55c-281.58,312.22 -615.88,524.44 -1006.68,636.86 -389.81,113.32 -787.7,125.29 -1191.77,35.82 -405.07,-90.38 -770.6,-280.76 -1095.79,-574.03z"/>
     </g>
     <g>
      <path class="fil1" d="M17268.95 39467.36l-473.82 -427.32 2381.32 -2640.44 473.81 427.32 -2381.31 2640.44zm3516.16 -4851.47l2334.88 -2588.93 4308.26 3885.48 -409.32 453.87c-170.46,-554.32 -775.87,-1341.87 -1214.81,-1737.73l-2300.28 -2074.55 -2244.91 2489.18 -473.82 -427.32z"/>
      <path class="fil2" d="M19837.1 41782.33l-1967.09 -1774.05 2380.74 -2639.79 470.83 424.62 -2290.78 2540.04 1510.23 1362.02c252.6,195.26 540.54,301.19 865.81,319.59 324.28,17.51 654.73,-48.04 992.35,-195.76 336.63,-148.62 641.68,-374.56 914.27,-676.8 278.88,-309.23 515.92,-634.25 587.22,-1006.12 327.78,-1709.82 -3520.01,-4423.37 -3584.44,-4336.67l528.25 -584.07c-48.21,53.46 2526.39,2780.8 3083.24,2931.21 287.08,77.54 511.51,149.28 832.91,39.17 322.52,-110.48 611.86,-307.38 866.45,-589.68 219.51,-243.39 373.34,-506.22 460.5,-789.39 87.15,-283.16 107.3,-556.22 59.64,-816.26 -47.65,-260.04 -166.24,-475.52 -354.77,-645.55l-1247.89 -1125.43 -1619.01 1795.18 -470.83 -424.62 1708.98 -1894.93 1782.55 1607.62c267.33,241.1 454.05,523.45 561.15,847.95 106.1,323.61 129.62,650.52 71.47,979.74 -58.15,329.23 -213.62,633.99 -466.41,914.29 -279.78,310.22 -618.85,502.3 -1017.4,576.55 -399.35,74.39 -829.74,73.63 -1215.58,-86.22 241.82,299.48 442.1,586.52 523.68,943.66 81.82,358.21 80.63,714.86 -2.8,1070.12 -84.34,356.26 -252.5,673.09 -506.19,954.38l-162.84 180.55c-281.58,312.22 -615.87,524.44 -1006.68,636.87 -389.8,113.32 -787.69,125.29 -1191.77,35.81 -405.07,-90.38 -770.6,-280.76 -1095.79,-574.03z"/>
     </g>
     <g>
      <path class="fil1" d="M26620.14 32041.98l-473.82 -427.32 2381.32 -2640.43 473.81 427.32 -2381.31 2640.43zm3516.16 -4851.46l2334.88 -2588.94 4308.26 3885.48 -409.32 453.87c-170.46,-554.31 -775.87,-1341.86 -1214.81,-1737.73l-2300.28 -2074.55 -2244.91 2489.19 -473.82 -427.32z"/>
      <path class="fil2" d="M29188.29 34356.95l-1967.09 -1774.05 2380.74 -2639.79 470.83 424.62 -2290.78 2540.04 1510.23 1362.03c252.6,195.25 540.54,301.18 865.81,319.59 324.28,17.51 654.73,-48.05 992.35,-195.77 336.63,-148.62 641.68,-374.55 914.27,-676.8 278.88,-309.23 515.92,-634.25 587.22,-1006.12 327.78,-1709.82 -3520.01,-4423.37 -3584.44,-4336.67l528.25 -584.06c-48.21,53.45 2526.39,2780.79 3083.24,2931.2 287.08,77.55 511.51,149.28 832.91,39.18 322.52,-110.49 611.86,-307.39 866.45,-589.69 219.51,-243.39 373.34,-506.22 460.5,-789.38 87.15,-283.17 107.3,-556.22 59.64,-816.26 -47.65,-260.05 -166.24,-475.53 -354.77,-645.56l-1247.89 -1125.42 -1619.01 1795.18 -470.83 -424.62 1708.98 -1894.94 1782.55 1607.63c267.33,241.09 454.05,523.44 561.15,847.95 106.09,323.6 129.62,650.51 71.47,979.74 -58.15,329.22 -213.62,633.98 -466.41,914.28 -279.78,310.23 -618.85,502.3 -1017.4,576.55 -399.35,74.4 -829.75,73.63 -1215.58,-86.21 241.82,299.48 442.1,586.51 523.68,943.65 81.82,358.21 80.63,714.87 -2.8,1070.12 -84.34,356.26 -252.5,673.09 -506.2,954.39l-162.83 180.55c-281.58,312.22 -615.87,524.44 -1006.68,636.86 -389.8,113.32 -787.69,125.29 -1191.77,35.81 -405.07,-90.37 -770.6,-280.75 -1095.79,-574.03z"/>
     </g>
     <g>
      <path class="fil1" d="M35971.32 24616.6l-473.81 -427.32 2381.32 -2640.43 473.81 427.32 -2381.32 2640.43zm3516.17 -4851.46l2334.88 -2588.93 4308.26 3885.48 -409.32 453.86c-170.46,-554.31 -775.87,-1341.86 -1214.81,-1737.73l-2300.28 -2074.54 -2244.91 2489.18 -473.82 -427.32z"/>
      <path class="fil2" d="M38539.48 26931.57l-1967.09 -1774.05 2380.74 -2639.79 470.83 424.62 -2290.78 2540.04 1510.23 1362.03c252.6,195.25 540.54,301.18 865.81,319.59 324.28,17.51 654.73,-48.05 992.35,-195.77 336.63,-148.62 641.68,-374.55 914.27,-676.79 278.88,-309.23 515.92,-634.26 587.21,-1006.12 327.79,-1709.82 -3520,-4423.37 -3584.43,-4336.67l528.25 -584.07c-48.21,53.45 2526.39,2780.79 3083.24,2931.2 287.08,77.55 511.51,149.28 832.91,39.18 322.52,-110.49 611.86,-307.39 866.45,-589.68 219.51,-243.39 373.34,-506.22 460.5,-789.39 87.15,-283.17 107.3,-556.22 59.64,-816.26 -47.65,-260.04 -166.24,-475.53 -354.77,-645.56l-1247.89 -1125.42 -1619.01 1795.18 -470.83 -424.62 1708.98 -1894.93 1782.55 1607.62c267.33,241.1 454.05,523.45 561.14,847.95 106.1,323.6 129.63,650.51 71.48,979.74 -58.15,329.22 -213.62,633.99 -466.41,914.29 -279.78,310.22 -618.85,502.3 -1017.4,576.54 -399.36,74.4 -829.75,73.64 -1215.58,-86.21 241.82,299.48 442.1,586.52 523.68,943.66 81.82,358.21 80.63,714.86 -2.8,1070.12 -84.34,356.25 -252.5,673.08 -506.2,954.38l-162.83 180.55c-281.58,312.22 -615.87,524.44 -1006.68,636.86 -389.8,113.32 -787.69,125.29 -1191.77,35.82 -405.07,-90.38 -770.6,-280.76 -1095.79,-574.04z"/>
     </g>
    </g>
   </g>
  </g>
  <polygon class="fil3" points="-0,0 29480.94,0 29480.94,19363.19 -0,19363.19 "/>
 </g>
</svg>
